<?xml version="1.0" encoding="UTF-8" standalone="no"?>
<!DOCTYPE svg PUBLIC "-//W3C//DTD SVG 1.1//EN" "http://www.w3.org/Graphics/SVG/1.1/DTD/svg11.dtd">
<svg width="100%" height="100%" viewBox="0 0 8334 5000" version="1.1" xmlns="http://www.w3.org/2000/svg" xmlns:xlink="http://www.w3.org/1999/xlink" xml:space="preserve" xmlns:serif="http://www.serif.com/" style="fill-rule:evenodd;clip-rule:evenodd;stroke-linejoin:round;stroke-miterlimit:2;">
    <g id="Layer-1" serif:id="Layer 1" transform="matrix(4.16667,0,0,4.16667,-5.22913,-2285.34)">
        <g transform="matrix(1.1145,0,0,1.0962,373.175,812.506)">
            <path d="M0,-4.765L-38.06,0L-13.658,0L0,-4.765Z" style="fill:white;fill-rule:nonzero;"/>
        </g>
        <g transform="matrix(1.1145,0,0,1.0962,402.196,799.417)">
            <path d="M0,11.94L22.637,3.299L31.278,0L-12.565,5.489L-17.348,7.157L-31.058,11.94L0,11.94Z" style="fill:white;fill-rule:nonzero;"/>
        </g>
        <g transform="matrix(1.1145,0,0,1.0962,1246.02,815.625)">
            <rect x="-842.631" y="0" width="851.408" height="17.494" style="fill:white;fill-rule:nonzero;"/>
        </g>
        <g transform="matrix(1.1145,0,0,1.0962,579.154,771.172)">
            <path d="M0,37.706L52.871,12.253L78.324,0L38.878,4.938L-32.855,37.706L0,37.706Z" style="fill:white;fill-rule:nonzero;"/>
        </g>
        <g transform="matrix(1.1145,0,0,1.0962,498.334,777.88)">
            <path d="M0,31.587L32.814,31.587L80.28,9.905L101.962,0L57.31,5.59L39.426,13.702L0,31.587Z" style="fill:white;fill-rule:nonzero;"/>
        </g>
        <g transform="matrix(1.01495,-0.452857,-0.460415,-0.998286,497.475,816.324)">
            <path d="M-4.131,5.699L55.917,5.699L16.342,17.998L-33.691,19.108L-4.131,5.699Z" style="fill:white;fill-rule:nonzero;"/>
        </g>
        <g transform="matrix(1.1145,0,0,1.0962,446.413,792.361)">
            <path d="M0,18.377L43.022,0L3.471,4.951L-6.245,8.661L-31.698,18.377L0,18.377Z" style="fill:white;fill-rule:nonzero;"/>
        </g>
        <g transform="matrix(1.1145,0,0,1.0962,435.337,1061.82)">
            <path d="M0,-120.017C-0.316,-119.329 -0.78,-118.312 -1.369,-117.02C-1.605,-116.504 -1.86,-115.943 -2.134,-115.342C-2.545,-114.44 -2.997,-113.447 -3.486,-112.373C-3.811,-111.658 -4.153,-110.907 -4.509,-110.124C-5.577,-107.775 -6.777,-105.137 -8.065,-102.302C-8.709,-100.885 -9.375,-99.418 -10.059,-97.914C-10.742,-96.41 -11.443,-94.868 -12.155,-93.3C-12.392,-92.777 -12.631,-92.252 -12.871,-91.724C-13.351,-90.667 -13.835,-89.601 -14.322,-88.528C-14.676,-87.749 -15.032,-86.964 -15.389,-86.179C-15.657,-85.589 -15.925,-84.998 -16.194,-84.407C-17.536,-81.451 -18.885,-78.48 -20.21,-75.561C-20.563,-74.783 -20.914,-74.01 -21.263,-73.24C-21.635,-72.422 -22.004,-71.608 -22.37,-70.803C-22.606,-70.282 -22.841,-69.765 -23.075,-69.25C-24.315,-66.519 -25.508,-63.889 -26.63,-61.417C-26.92,-60.777 -27.206,-60.149 -27.486,-59.531C-27.642,-59.188 -27.796,-58.849 -27.948,-58.513C-28.365,-57.595 -28.768,-56.706 -29.156,-55.851C-29.325,-55.479 -29.49,-55.115 -29.653,-54.756C-30.028,-53.93 -30.387,-53.139 -30.729,-52.386C-31.04,-51.699 -31.337,-51.045 -31.618,-50.426C-31.926,-49.746 -32.215,-49.11 -32.484,-48.518C-32.6,-48.262 -32.712,-48.014 -32.82,-47.776C-32.951,-47.488 -33.075,-47.214 -33.194,-46.953C-33.292,-46.737 -33.386,-46.53 -33.475,-46.332C-34.023,-45.124 -34.411,-44.27 -34.598,-43.858L-34.598,0L21.303,-115.384L0,-120.017Z" style="fill:white;fill-rule:nonzero;"/>
        </g>
        <g transform="matrix(1.1145,0,0,1.0962,932.784,762.913)">
            <path d="M0,45.24L32.127,4.399L28.363,3.764L6.047,0L-35.761,45.24L0,45.24Z" style="fill:white;fill-rule:nonzero;"/>
        </g>
        <g transform="matrix(0.428434,-1.01197,-1.02886,-0.4214,1031.2,788.697)">
            <path d="M-23.563,0.086L9.745,0.086L3.407,27.463L-37.493,33.539L-23.563,0.086Z" style="fill:white;fill-rule:nonzero;"/>
        </g>
        <g transform="matrix(0.989756,-0.503922,-0.512333,-0.973507,637.642,822.603)">
            <path d="M-7.131,14.063L87.176,14.063L52.9,26.697L-36.547,29.29L-7.131,14.063Z" style="fill:white;fill-rule:nonzero;"/>
        </g>
        <g transform="matrix(1.1145,0,0,1.0962,1109.17,785.448)">
            <path d="M0,24.683L2.204,5.489L-30.338,0L-32.676,9.207L-36.607,24.683L0,24.683Z" style="fill:white;fill-rule:nonzero;"/>
        </g>
        <g transform="matrix(1.1145,0,0,1.0962,1156.43,812.506)">
            <path d="M0,-12.414L0,0L73.601,0L0,-12.414Z" style="fill:white;fill-rule:nonzero;"/>
        </g>
        <g transform="matrix(-1.09898,-0.182304,-0.185347,1.08093,1111.99,802.719)">
            <path d="M-35.857,-10.069L-0.819,-10.069L-1.812,8.748L-38.001,2.645L-35.857,-10.069Z" style="fill:white;fill-rule:nonzero;"/>
        </g>
        <g transform="matrix(1.1145,0,0,1.0962,976.923,768.327)">
            <path d="M0,40.302L8.133,26.797L21.638,4.372L-4.281,0L-35.984,40.302L0,40.302Z" style="fill:white;fill-rule:nonzero;"/>
        </g>
        <g transform="matrix(0.941012,-0.587356,-0.597159,-0.925563,732.087,822.68)">
            <path d="M-10.383,17.582L89.132,17.582L61.402,30.668L-38.996,35.739L-10.383,17.582Z" style="fill:white;fill-rule:nonzero;"/>
        </g>
        <g transform="matrix(0.756408,-0.805067,-0.818504,-0.74399,910.175,806.548)">
            <path d="M-17.123,10.521L45.246,10.521L32.562,29.929L-41.152,36.523L-17.123,10.521Z" style="fill:white;fill-rule:nonzero;"/>
        </g>
        <g transform="matrix(1.1145,0,0,1.0962,667.612,759.248)">
            <path d="M0,48.584L54.821,17.559L85.847,0L52.227,4.209L-33.5,48.584L0,48.584Z" style="fill:white;fill-rule:nonzero;"/>
        </g>
        <g transform="matrix(1.1145,0,0,1.0962,717.734,748.695)">
            <path d="M0,58.211L34.36,58.211L117.777,0L100.597,2.151L85.329,4.062L52.941,24.615L0,58.211Z" style="fill:white;fill-rule:nonzero;"/>
        </g>
        <g transform="matrix(0.826319,-0.735586,-0.747863,-0.812753,867.662,812.315)">
            <path d="M-15.572,13.859L59.333,13.859L44.404,32.775L-41.628,37.441L-15.572,13.859Z" style="fill:white;fill-rule:nonzero;"/>
        </g>
        <g transform="matrix(0.865608,-0.69049,-0.702015,-0.851397,824.738,816.787)">
            <path d="M-14.62,16.885L72.541,16.885L59.739,31.415L-41.562,38.736L-14.62,16.885Z" style="fill:white;fill-rule:nonzero;"/>
        </g>
        <g transform="matrix(1.1145,0,0,1.0962,1065.1,779.332)">
            <path d="M0,30.262L6.39,5.104L-19.509,0.736L-23.876,0L-36.479,30.262L0,30.262Z" style="fill:white;fill-rule:nonzero;"/>
        </g>
        <g transform="matrix(1.1145,0,0,1.0962,-110.935,-91.8385)">
            <rect x="1589.7" y="870.684" width="36.878" height="382.15" style="fill:white;"/>
        </g>
        <g transform="matrix(1.1145,0,0,1.0962,-110.935,-91.8385)">
            <rect x="1549.98" y="870.684" width="36.878" height="382.15" style="fill:white;"/>
        </g>
        <g transform="matrix(-1.1145,0,0,1.0962,3558.35,-91.8385)">
            <rect x="1629.42" y="870.684" width="33.476" height="382.15" style="fill:white;"/>
        </g>
        <g transform="matrix(-1.1145,0,0,1.0962,1879.84,-91.8385)">
            <rect x="874.69" y="870.684" width="36.878" height="382.15" style="fill:white;"/>
        </g>
        <g transform="matrix(1.1145,0,0,1.0962,-110.935,-91.8385)">
            <rect x="1510.26" y="870.684" width="36.878" height="382.15" style="fill:white;"/>
        </g>
        <g transform="matrix(1.1145,0,0,1.0962,-110.935,-91.8385)">
            <rect x="838.369" y="870.684" width="33.476" height="382.15" style="fill:white;"/>
        </g>
        <g transform="matrix(1.1145,0,0,1.0962,-110.935,-91.8385)">
            <rect x="1351.37" y="870.684" width="36.878" height="382.15" style="fill:white;"/>
        </g>
        <g transform="matrix(1.1145,0,0,1.0962,-110.935,-91.8385)">
            <rect x="1470.53" y="870.684" width="36.878" height="382.15" style="fill:white;"/>
        </g>
        <g transform="matrix(1.1145,0,0,1.0962,-110.935,-91.8385)">
            <rect x="1430.81" y="870.684" width="36.878" height="382.15" style="fill:white;"/>
        </g>
        <g transform="matrix(1.1145,0,0,1.0962,-110.935,-91.8385)">
            <rect x="1391.09" y="870.684" width="36.878" height="382.15" style="fill:white;"/>
        </g>
        <g transform="matrix(-1.1145,0,0,1.0962,2056.93,-470.34)">
            <rect x="954.135" y="1215.97" width="36.878" height="36.865" style="fill:white;"/>
        </g>
        <g transform="matrix(-1.1145,0,0,1.0962,2499.64,-91.8385)">
            <rect x="1152.75" y="870.684" width="36.878" height="382.15" style="fill:white;"/>
        </g>
        <g transform="matrix(-1.1145,0,0,1.0962,2411.09,-91.8385)">
            <rect x="1113.03" y="870.684" width="36.878" height="382.15" style="fill:white;"/>
        </g>
        <g transform="matrix(-1.1145,0,0,1.0962,2322.55,-91.8385)">
            <rect x="1073.3" y="870.684" width="36.878" height="382.15" style="fill:white;"/>
        </g>
        <g transform="matrix(1.1145,0,0,1.0962,319.058,837.921)">
            <rect x="0" y="0" width="828.89" height="19.673" style="fill:white;fill-rule:nonzero;"/>
        </g>
        <g transform="matrix(1.1145,0,0,1.0962,820.254,890.542)">
            <rect x="-464.96" y="-25.485" width="464.96" height="25.485" style="fill:white;fill-rule:nonzero;"/>
        </g>
        <g transform="matrix(-1.1145,0,0,1.0962,2145.47,-470.34)">
            <rect x="993.858" y="1215.97" width="36.878" height="36.865" style="fill:white;"/>
        </g>
        <g transform="matrix(1.1145,0,0,1.0962,-110.935,15.9256)">
            <rect x="993.858" y="870.684" width="36.878" height="283.843" style="fill:white;"/>
        </g>
        <g transform="matrix(1.1145,0,0,1.0962,1072.69,1173.75)">
            <path d="M0,-185.536L-28.448,-185.536L-28.448,98.307L8.43,98.307L8.43,-283.843L-28.448,-283.843L-28.448,-246.978L0,-246.978L0,-185.536Z" style="fill:white;fill-rule:nonzero;"/>
        </g>
        <g transform="matrix(1.1145,0,0,1.0962,-110.935,15.9256)">
            <rect x="954.135" y="870.684" width="36.878" height="283.843" style="fill:white;"/>
        </g>
        <g transform="matrix(1.1145,0,0,1.0962,949.275,1241.11)">
            <path d="M0,-308.42L0,-345.285L-36.878,-345.285L-36.878,36.865L0,36.865L0,-246.978L-28.449,-246.978L-28.449,-308.42L0,-308.42Z" style="fill:white;fill-rule:nonzero;"/>
        </g>
        <g transform="matrix(1.1145,0,0,1.0962,820.254,957.032)">
            <path d="M0,-17.858L-203.548,-17.858L-147.484,-2.699L-138.354,-0.23L-137.494,0L0,0L0,-17.858Z" style="fill:white;fill-rule:nonzero;"/>
        </g>
        <g transform="matrix(1.1145,0,0,1.0962,653.212,1149.38)">
            <path d="M0,-160.318L0,-126.596L-14.426,-163.248L0,-160.318ZM-36.957,-165.417L-20.871,-125.7L-6.353,-89.855L-6.353,72.961L10.775,72.961L10.775,-172.802L10.701,-172.85L10.363,-173.066L-115.133,-206.733L-214.084,-233.279L-230.09,-233.279L-230.09,-210.333L-38.25,-168.61L-36.957,-165.417Z" style="fill:white;fill-rule:nonzero;"/>
        </g>
        <g transform="matrix(-1.1145,0,0,1.0962,1517.62,710.657)">
            <path d="M0,-33.764C-0.051,-31.156 -0.939,-28.416 -1.872,-26.045C-4.502,-19.367 -7.987,-13.224 -12.328,-7.617L-13.16,-6.605C-13.247,-6.498 -13.233,-6.405 -13.117,-6.326L-3.53,0.147C-3.468,0.189 -3.406,0.192 -3.341,0.156C-3.135,0.046 -2.985,-0.118 -2.893,-0.338C0.366,-4.448 3.242,-8.767 5.734,-13.297C7.518,-16.534 9.016,-19.897 10.225,-23.387C10.538,-24.289 10.783,-25.177 10.961,-26.048C11.006,-26.268 10.915,-26.496 10.729,-26.626L0.24,-33.885C0.141,-33.956 0.003,-33.885 0,-33.764" style="fill:white;fill-rule:nonzero;"/>
        </g>
        <g transform="matrix(-1.1145,0,0,1.0962,1509.54,712.008)">
            <path d="M0,4.381L-0.429,4.801C-0.561,4.928 -0.55,5.043 -0.398,5.145L24.718,22.102C24.788,22.15 24.853,22.144 24.912,22.079L25.894,21.014C30.424,15.519 33.934,9.385 36.42,2.611C36.747,1.72 37.004,0.829 37.192,-0.059C37.223,-0.208 37.161,-0.361 37.037,-0.445L12.063,-17.726C12.001,-17.769 11.919,-17.74 11.894,-17.67C9.717,-11.265 6.707,-5.258 2.859,0.355C2.475,0.916 1.522,2.258 0,4.381" style="fill:white;fill-rule:nonzero;"/>
        </g>
        <g transform="matrix(-1.1145,0,0,1.0962,1465.5,738.026)">
            <path d="M0,-19.362C-1.923,-13.656 -4.821,-8.162 -8.691,-2.881C-9.41,-1.9 -10.106,-0.945 -10.78,-0.014L-13.43,3.09C-13.526,3.205 -13.509,3.301 -13.382,3.377C-12.314,4.025 -11.237,4.727 -10.152,5.48C-9.997,5.59 -9.627,5.773 -9.049,6.035C-8.962,6.075 -8.889,6.058 -8.827,5.987L-6.447,3.259C-1.432,-2.822 2.376,-9.622 4.979,-17.141C5.514,-18.688 5.74,-20.242 5.652,-21.806C5.633,-22.156 5.449,-22.491 5.105,-22.815C4.702,-23.193 3.792,-23.861 2.374,-24.823C1.658,-25.305 1.195,-25.437 0.443,-25.107C0.366,-25.074 0.355,-24.969 0.423,-24.921C0.865,-24.591 1.046,-24.081 0.958,-23.385C0.804,-22.136 0.482,-20.794 0,-19.362" style="fill:white;fill-rule:nonzero;"/>
        </g>
        <g transform="matrix(-1.1145,0,0,1.0962,1466.98,743.366)">
            <path d="M0,0.237L-0.66,1.131C-0.708,1.195 -0.691,1.291 -0.623,1.336L8.074,7.121C6.569,9.326 4.873,11.388 3.003,13.321L-12.291,4.429L-14.431,7.368C-14.431,7.368 -11.494,9.025 -9.401,12.021C-9.231,12.27 -9.059,12.518 -8.907,12.776C-8.463,13.534 -8.1,14.331 -7.834,15.178C-7.809,15.263 -7.705,15.401 -7.527,15.59C-7.409,15.717 -7.276,15.821 -7.132,15.906C-5.604,16.805 -4.119,17.752 -2.673,18.747C-2.526,18.849 -2.334,18.849 -2.188,18.747C-0.806,17.792 0.35,17.087 1.474,16.159C1.816,15.878 2.124,15.569 2.457,15.28L2.696,15.123L2.737,15.029C6.656,11.585 9.995,7.665 12.689,3.217C14.144,0.812 15.415,-1.584 16.5,-3.975C17.583,-6.351 18.276,-8.795 18.581,-11.307C18.648,-11.885 18.626,-12.142 18.118,-12.497C15.184,-14.549 12.181,-16.576 9.114,-18.578C9.063,-18.612 8.999,-18.581 8.99,-18.521C8.553,-15.33 7.6,-12.294 6.129,-9.413C4.186,-5.607 2.145,-2.39 0,0.237" style="fill:white;fill-rule:nonzero;"/>
        </g>
        <g transform="matrix(-1.1145,0,0,1.0962,1522.34,769.445)">
            <path d="M0,-34.898C0.251,-34.642 0.668,-34.312 1.252,-33.911C4.587,-31.622 11.201,-27.171 21.096,-20.554C21.282,-20.428 21.448,-20.315 21.597,-20.21C21.685,-20.148 21.688,-20.016 21.6,-19.951L16.41,-16.004C16.351,-15.962 16.323,-15.903 16.323,-15.83L16.323,5.833C16.323,5.911 16.362,5.951 16.438,5.951L19.599,5.979L25.84,5.976C26.159,5.976 26.181,5.892 25.911,5.725C24.729,4.998 23.616,4.107 22.573,3.05C21.208,1.666 20.278,0.011 19.785,-1.917C19.111,-4.375 19.117,-6.783 19.801,-9.137L21.609,-12.788C21.651,-12.87 21.634,-12.943 21.563,-13.005C21.138,-13.383 20.78,-13.453 20.348,-14.014L24.075,-17.152C25.285,-18.06 26.407,-19.056 27.464,-20.115L27.482,-20.112L27.588,-20.234C27.675,-20.321 27.77,-20.401 27.856,-20.49C27.89,-20.523 27.901,-20.555 27.896,-20.586L30.596,-23.675L5.572,-40.877L1.915,-36.726L0.006,-35.056C-0.053,-35.005 -0.053,-34.952 0,-34.898" style="fill:white;fill-rule:nonzero;"/>
        </g>
        <g transform="matrix(-1.1145,0,0,1.0962,1488.24,758.394)">
            <path d="M0,8.869C-2.377,8.869 -4.302,6.943 -4.302,4.567C-4.302,2.19 -2.377,0.265 0,0.265C2.376,0.265 4.302,2.19 4.302,4.567C4.302,6.943 2.376,8.869 0,8.869M2.216,-3.872C-2.25,-5.06 -6.859,-2.303 -8.08,2.283C-9.3,6.87 -6.67,11.553 -2.205,12.741C2.261,13.929 6.87,11.172 8.091,6.586C9.312,1.999 6.681,-2.684 2.216,-3.872" style="fill:white;fill-rule:nonzero;"/>
        </g>
        <g transform="matrix(-1.1145,0,0,1.0962,1471.82,781.157)">
            <path d="M0,-2.12L-30.136,-2.12C-30.204,-2.12 -30.26,-2.064 -30.26,-1.996L-30.26,-0.124C-30.26,-0.056 -30.204,0 -30.136,0L0,0C0.068,0 0.124,-0.056 0.124,-0.124L0.124,-1.996C0.124,-2.064 0.068,-2.12 0,-2.12" style="fill:white;fill-rule:nonzero;"/>
        </g>
        <g transform="matrix(-1.1145,0,0,1.0962,1510.07,786.405)">
            <path d="M0,-3.705L0,-0.001C0,0.059 0.048,0.107 0.107,0.107L38.695,0.107C38.754,0.107 38.802,0.059 38.802,-0.001L38.802,-3.705C38.802,-3.764 38.754,-3.812 38.695,-3.812L0.107,-3.812C0.048,-3.812 0,-3.764 0,-3.705" style="fill:white;fill-rule:nonzero;"/>
        </g>
        <g transform="matrix(-1.1145,0,0,1.0962,1454.11,803.349)">
            <path d="M0,38.465L-0.644,36.39L-15.205,-10.55C-15.219,-10.595 -15.258,-10.623 -15.303,-10.623L-23.902,-10.623C-23.972,-10.623 -24.023,-10.555 -24.003,-10.488C-24.003,-10.488 -14.116,19.828 -8.697,36.39C-8.461,37.109 -8.235,37.802 -8.017,38.465C-7.779,39.193 -7.552,39.887 -7.338,40.539L-27.31,40.539L-27.31,38.465L-27.309,36.39L-27.299,-10.527C-27.299,-10.6 -27.358,-10.66 -27.431,-10.659L-34.186,-10.671C-34.259,-10.671 -34.318,-10.612 -34.318,-10.539L-34.329,36.39L-34.329,38.465L-34.33,40.539L-54.166,40.539L-53.483,38.465L-52.799,36.39L-37.326,-10.547C-37.307,-10.609 -37.352,-10.671 -37.414,-10.671L-46.224,-10.671C-46.266,-10.671 -46.299,-10.645 -46.314,-10.609L-61.807,36.39L-62.49,38.465L-63.174,40.539L-209.642,40.539L-209.642,49.136L240.209,49.136L240.209,40.539L0.643,40.539L0,38.465Z" style="fill:white;fill-rule:nonzero;"/>
        </g>
        <g transform="matrix(-1.1145,0,0,1.0962,1516.64,700.636)">
            <path d="M0,9.881C-0.75,10.876 -1.534,11.905 -2.348,12.968C-3.64,14.591 -5.003,16.158 -6.413,17.689L-19.246,8.422C-20.145,9.504 -22.1,11.797 -24.146,13.882C-24.446,14.195 -24.758,14.495 -25.058,14.794C-25.736,15.446 -26.4,16.045 -27.026,16.554C-26.074,17.244 -25.123,17.922 -24.146,18.6C-22.335,19.864 -20.484,21.101 -18.595,22.313C-18.386,22.457 -18.152,22.587 -17.917,22.73L-17.852,22.77L-14.416,25.041C-15.246,25.558 -16.118,25.99 -17.123,26.187C-17.301,26.221 -17.315,26.288 -17.166,26.39C-15.613,27.452 -14.262,28.408 -12.762,28.995C-12.669,29.031 -12.582,29.023 -12.497,28.972C-10.67,27.873 -9.007,26.55 -7.51,25.003C-4.249,21.967 -1.294,18.648 1.359,15.054C7.425,7.417 12.689,-1.505 16.01,-10.755C16.689,-12.652 17.301,-14.403 17.027,-16.089C16.979,-16.385 16.805,-16.65 16.509,-16.884C15.361,-17.783 14.465,-18.445 13.822,-18.866C13.515,-19.066 13.275,-19.15 13.106,-19.125C12.821,-19.077 12.554,-18.967 12.302,-18.795C12.198,-18.725 12.209,-18.674 12.333,-18.646C12.596,-18.586 12.787,-18.507 12.914,-18.406C12.99,-18.344 13.03,-18.262 13.033,-18.164C13.109,-15.054 12.097,-12.049 10.873,-9.058C8.175,-2.453 4.55,3.859 0,9.881" style="fill:white;fill-rule:nonzero;"/>
        </g>
        <g transform="matrix(-1.1145,0,0,1.0962,1440.87,737.195)">
            <path d="M0,23.164L0.465,22.589C4.02,18.2 6.78,13.382 8.739,8.135C8.838,7.879 8.869,7.614 8.832,7.34C8.818,7.247 8.773,7.174 8.697,7.12L-1.629,-0.026C-1.714,-0.082 -1.827,-0.037 -1.846,0.061C-1.962,0.648 -2.128,1.237 -2.351,1.829C-4.158,6.661 -6.701,11.095 -9.979,15.129L-10.755,16.048C-10.831,16.136 -10.82,16.212 -10.721,16.277L-0.203,23.195C-0.127,23.246 -0.059,23.234 0,23.164" style="fill:white;fill-rule:nonzero;"/>
        </g>
        <g transform="matrix(-1.1145,0,0,1.0962,1475.6,775.799)">
            <path d="M0,-8.99C-0.818,-4.925 -3.135,-1.956 -6.952,-0.082C-7.175,0.028 -7.164,0.11 -6.924,0.169C-6.794,0.2 -6.583,0.217 -6.287,0.22C-4.048,0.234 -1.985,0.229 -0.099,0.203C-0.003,0.2 0.073,0.124 0.073,0.028L0.073,-8.982C0.073,-9.221 0.048,-9.224 0,-8.99" style="fill:white;fill-rule:nonzero;"/>
        </g>
        <g transform="matrix(-1.1145,0,0,1.0962,1462.87,761.451)">
            <path d="M0,2.16L-0.67,2.746C-0.777,2.842 -0.765,3.013 -0.644,3.092L7.029,8.139L13.274,12.481C12.783,12.756 12.27,12.991 11.729,13.174C11.687,13.188 11.684,13.241 11.72,13.264L15.845,15.646C15.915,15.688 16.002,15.691 16.076,15.652C17.567,14.882 18.895,13.887 20.065,12.672C21.051,11.759 22.005,10.789 22.934,9.775L22.938,9.779L23.597,10.142L24.875,10.848L26.661,11.834L29.675,13.497L38.081,18.136L38.169,18.013L38.877,17.024L39.082,16.739L39.269,16.478L40.896,14.205L41.984,12.686L42.704,11.68L42.947,11.34L43.299,10.849L44.188,9.608L45.935,7.168L46.604,6.234L48.496,3.591L34.398,-7.897L34.397,-7.897C34.632,-8.542 34.866,-9.245 35.096,-10.016C35.333,-10.814 35.452,-11.595 35.449,-12.362C35.449,-12.957 35.294,-13.354 34.848,-13.763C34.135,-14.42 33.21,-15.133 32.08,-15.903C31.998,-15.959 31.908,-15.976 31.812,-15.956C31.37,-15.858 31.017,-15.748 30.755,-15.621C30.516,-15.505 30.524,-15.415 30.783,-15.353C31.276,-15.232 31.502,-14.848 31.46,-14.203C31.423,-13.622 31.276,-12.931 31.02,-12.131C29.221,-6.512 26.005,-1.257 22.371,3.535C20.986,5.299 19.581,6.936 18.067,8.469L3.309,-1.2L0,2.16Z" style="fill:white;fill-rule:nonzero;"/>
        </g>
        <g transform="matrix(-1.1145,0,0,1.0962,1561.26,680.716)">
            <path d="M0,12.816C1.249,10.059 2.608,7.508 4.305,4.903C5.218,3.499 5.909,2.464 6.377,1.802C9.17,-2.156 12.263,-5.711 15.649,-8.86C16.678,-9.816 17.845,-10.774 19.156,-11.736C19.767,-12.184 20.393,-12.559 21.039,-12.863C21.18,-12.931 21.338,-12.801 21.295,-12.649C20.695,-10.492 19.9,-8.401 18.916,-6.377C15.75,0.11 11.688,6.104 6.724,11.601C4.55,14.006 2.255,16.205 -0.167,18.198C-0.33,18.33 -0.744,18.621 -1.41,19.069C-1.489,19.122 -1.599,19.069 -1.601,18.973C-1.675,16.963 -0.821,14.629 0,12.816M-4.364,26.314C-3.829,26.525 -3.124,27.024 -2.253,27.811C-0.787,29.133 0.857,30.497 2.675,31.899C3.715,32.702 4.784,33.441 5.88,34.117C5.974,34.174 6.086,34.185 6.191,34.145C7.547,33.613 8.835,32.815 10.056,31.752C10.283,31.554 10.497,31.34 10.72,31.135C10.786,31.077 10.845,31.042 10.913,30.979C15.348,26.826 20.447,20.27 20.447,20.27L20.423,20.265C22.317,18.078 24.127,15.834 25.818,13.509C28.995,9.137 31.771,4.533 34.148,-0.301C35.318,-2.686 36.313,-5.057 37.133,-7.417C37.401,-8.186 37.725,-9.464 38.111,-11.254C38.255,-11.933 38.159,-12.491 37.821,-12.928C37.751,-13.021 37.348,-13.34 36.609,-13.889C35.456,-14.744 34.464,-15.463 33.626,-16.043C33.547,-16.097 33.46,-16.131 33.367,-16.139C32.944,-16.187 32.36,-16.125 31.613,-15.947C31.492,-15.919 31.478,-15.863 31.571,-15.781C31.687,-15.677 31.816,-15.617 31.96,-15.598C32.262,-15.558 32.467,-15.279 32.422,-14.978C32.208,-13.616 31.836,-12.184 31.303,-10.681C30.477,-8.333 29.553,-6.092 28.532,-3.963C26.319,0.666 23.717,5.072 20.731,9.258L16.943,14.13C13.543,18 9.929,21.665 6.103,25.121C4.336,26.72 2.563,27.983 0.789,28.913C0.44,29.096 0.2,29.195 0.073,29.215C-0.584,29.305 -0.606,29.184 0.008,28.848C1.649,27.955 3.27,26.74 4.874,25.203C4.917,25.164 4.911,25.093 4.86,25.059L1.604,22.861C4.407,20.507 8.437,15.949 9.471,14.765L12.249,16.712C12.328,16.766 12.435,16.749 12.492,16.675L17.614,10.05C19.173,7.947 20.969,5.241 23.001,1.929C25.651,-2.387 27.836,-6.988 29.553,-11.879C29.945,-13.002 30.224,-14.174 30.384,-15.398C30.429,-15.745 30.308,-16.046 30.018,-16.3C29.722,-16.562 27.867,-18.067 24.456,-20.819C23.996,-21.188 23.556,-21.369 22.939,-21.276C21.707,-21.087 20.591,-20.695 19.587,-20.094C17.25,-18.693 15.045,-17.03 12.974,-15.105C7.733,-10.23 3.137,-4.75 -0.812,1.342C-3.366,5.28 -5.537,9.391 -7.324,13.679C-8.083,15.497 -8.652,17.298 -9.035,19.083C-9.3,20.315 -9.453,21.891 -9.005,23.004C-8.223,24.935 -6.408,25.513 -4.364,26.314" style="fill:white;fill-rule:nonzero;"/>
        </g>
        <g transform="matrix(-1.1145,0,0,1.0962,1361.82,696.889)">
            <path d="M0,58.609C1.798,32.56 3.256,31.103 29.305,29.304C3.256,27.506 1.798,26.048 0,0C-1.798,26.048 -3.256,27.506 -29.305,29.304C-3.256,31.103 -1.798,32.56 0,58.609" style="fill:white;fill-rule:nonzero;"/>
        </g>
        <g transform="matrix(-1.1145,0,0,1.0962,1429.41,644.279)">
            <path d="M0,40.715C1.249,22.62 2.262,21.607 20.358,20.358C2.262,19.108 1.249,18.096 0,0C-1.249,18.096 -2.262,19.108 -20.357,20.358C-2.262,21.607 -1.249,22.62 0,40.715" style="fill:white;fill-rule:nonzero;"/>
        </g>
        <g transform="matrix(-1.1145,0,0,1.0962,1302.01,775.39)">
            <path d="M0,40.715C1.249,22.62 2.262,21.607 20.357,20.358C2.262,19.108 1.249,18.096 0,0C-1.249,18.096 -2.262,19.108 -20.357,20.358C-2.262,21.607 -1.249,22.62 0,40.715" style="fill:white;fill-rule:nonzero;"/>
        </g>
        <g transform="matrix(0,-1.0962,1.1145,0,1623.73,728.051)">
            <path d="M-15.9,-15.9C-14.924,-1.767 -14.133,-0.976 -0,-0C-14.133,0.976 -14.924,1.767 -15.9,15.9C-16.876,1.767 -17.667,0.976 -31.799,-0C-17.667,-0.976 -16.876,-1.767 -15.9,-15.9" style="fill:white;fill-rule:nonzero;"/>
        </g>
        <g transform="matrix(-1.1145,0,0,1.0962,1625.12,632.95)">
            <path d="M0,40.715C1.249,22.62 2.262,21.607 20.358,20.358C2.262,19.108 1.249,18.096 0,0C-1.249,18.096 -2.262,19.108 -20.357,20.358C-2.262,21.607 -1.249,22.62 0,40.715" style="fill:white;fill-rule:nonzero;"/>
        </g>
        <g transform="matrix(-1.1145,0,0,1.0962,1731.51,688.694)">
            <path d="M0,32.636C1.001,18.131 1.813,17.319 16.318,16.318C1.813,15.317 1.001,14.505 0,0C-1.001,14.505 -1.813,15.317 -16.318,16.318C-1.813,17.319 -1.001,18.131 0,32.636" style="fill:white;fill-rule:nonzero;"/>
        </g>
        <g transform="matrix(-1.1145,0,0,1.0962,1534.68,588.318)">
            <path d="M0,40.715C1.249,22.62 2.262,21.607 20.357,20.358C2.262,19.108 1.249,18.096 0,0C-1.249,18.096 -2.262,19.108 -20.357,20.358C-2.262,21.607 -1.249,22.62 0,40.715" style="fill:white;fill-rule:nonzero;"/>
        </g>
        <g transform="matrix(1.1145,0,0,1.0962,1745.19,1310.67)">
            <path d="M0,-19.109L-2.539,-19.476L-5.078,-19.842L-5.078,-21.211L-827.336,-21.211L-827.336,2.102L-5.078,2.102L-5.078,2.056L146.581,2.056L0,-19.109Z" style="fill:white;fill-rule:nonzero;"/>
        </g>
        <g transform="matrix(1.1145,0,0,1.0962,359.806,893.66)">
            <path d="M-154.11,382.471L30.328,382.471L30.328,0L0,0L0,360.219L-2.845,360.63L-154.11,382.471Z" style="fill:white;fill-rule:nonzero;"/>
        </g>
        <g transform="matrix(-1.1145,0,0,1.0962,2720.99,-452.872)">
            <rect x="1196.99" y="1205.19" width="147.022" height="42.478" style="fill:white;"/>
        </g>
        <g transform="matrix(1.1145,0,0,1.0962,-110.935,-372.567)">
            <rect x="1196.99" y="1182.97" width="147.022" height="13.674" style="fill:white;"/>
        </g>
        <g transform="matrix(1.1145,0,0,1.0962,23.5734,1517.44)">
            <path d="M0,-122.276L35.969,-122.276L35.969,36.232L78.219,36.232L78.219,-122.276L114.187,-122.276L114.187,-158.508L0,-158.508L0,-122.276Z" style="fill:white;fill-rule:nonzero;"/>
        </g>
        <g transform="matrix(1.1145,0,0,1.0962,224.7,1430.63)">
            <path d="M0,36.096L29.687,36.096L29.687,115.418L71.937,115.418L71.937,-79.322L29.687,-79.322L29.687,-0.136L0,-0.136L0,-79.322L-42.25,-79.322L-42.25,115.418L0,115.418L0,36.096Z" style="fill:white;fill-rule:nonzero;"/>
        </g>
        <g transform="matrix(1.1145,0,0,1.0962,442.112,1517.44)">
            <path d="M0,-122.276L0,-158.508L-96.681,-158.508L-96.681,-0L-96.818,-0L-96.818,36.232L0,36.232L0,-0L-54.431,-0L-54.431,-43.09L-7.659,-43.09L-7.659,-79.322L-54.431,-79.322L-54.431,-122.276L0,-122.276Z" style="fill:white;fill-rule:nonzero;"/>
        </g>
        <g transform="matrix(1.1145,0,0,1.0962,613.825,1526.9)">
            <path d="M0,-139.542L14.279,-45.559L-14.427,-45.559L0,-139.542ZM-20.883,-9.464L20.737,-9.464L27.164,27.599L69.384,27.599L34.101,-167.141L-34.247,-167.141L-69.531,27.599L-27.31,27.599L-20.883,-9.464Z" style="fill:white;fill-rule:nonzero;"/>
        </g>
        <g transform="matrix(1.1145,0,0,1.0962,940.985,1343.68)">
            <path d="M0,194.74L0,36.232L35.969,36.232L35.969,0L-78.218,0L-78.218,36.232L-42.249,36.232L-42.249,194.74L0,194.74Z" style="fill:white;fill-rule:nonzero;"/>
        </g>
        <g transform="matrix(1.1145,0,0,1.0962,753.595,1343.68)">
            <path d="M0,194.74L35.828,194.74C51.407,194.652 61.951,192.01 67.163,186.888C72.363,181.6 75.004,173.266 75.004,162.127L75.004,130.945C75.004,118.899 72.363,110.105 67.153,104.807C61.857,99.604 49.817,92.125 31.378,82.588C12.329,72.738 3.068,65.651 3.068,60.922L3.068,42.186C3.068,38.291 5.032,36.232 8.748,36.232L28.305,36.232C32.111,36.232 34.123,38.291 34.123,42.186L34.123,63.585L73.638,63.585L73.638,32.613C73.638,21.477 70.996,13.142 65.786,7.842C60.584,2.732 50.04,0.09 34.454,0L1.363,0C-14.218,0.09 -24.763,2.732 -29.972,7.852C-35.172,13.139 -37.813,21.474 -37.813,32.613L-37.813,65.026C-37.813,77.069 -35.174,85.862 -29.967,91.159C-24.663,96.371 -12.853,103.85 5.138,113.386C29.892,126.512 32.755,131.255 32.755,133.68L32.755,152.554C32.755,156.449 30.79,158.508 27.075,158.508L7.517,158.508C3.712,158.508 1.7,156.449 1.7,152.554L1.7,131.155L-39.181,131.155L-39.181,162.127C-39.181,173.268 -36.541,181.601 -31.33,186.897C-26.13,192.01 -15.585,194.652 0,194.74" style="fill:white;fill-rule:nonzero;"/>
        </g>
        <g transform="matrix(1.1145,0,0,1.0962,1075.12,1458.36)">
            <path d="M0,-14.488L-23.87,-14.488L-23.87,-68.382L0,-68.382C3.805,-68.382 5.818,-66.323 5.818,-62.428L5.818,-20.442C5.818,-16.547 3.805,-14.488 0,-14.488M48.067,90.126L48.067,31.938C48.067,20.904 42.731,12.619 32.209,7.313C29.319,6.076 27.956,5.001 27.832,3.846L27.823,3.769L27.831,3.692C27.951,2.455 29.356,1.301 32.252,0.061C41.817,-5.209 46.701,-13.499 46.701,-24.545L46.701,-72.001C46.701,-83.138 44.059,-91.472 38.847,-96.772C33.646,-101.882 23.101,-104.524 7.517,-104.614L-66.119,-104.614L-66.119,90.126L-23.87,90.126L-23.87,21.881L0,21.881C3.805,21.881 5.818,23.94 5.818,27.836L5.818,90.126L48.067,90.126Z" style="fill:white;fill-rule:nonzero;"/>
        </g>
        <g transform="matrix(1.1145,0,0,1.0962,1237.76,1389.92)">
            <path d="M0,110.368C0,114.263 -2.012,116.323 -5.818,116.323L-24.006,116.323C-27.724,116.323 -29.688,114.263 -29.688,110.368L-29.688,0C-29.688,-3.895 -27.724,-5.954 -24.006,-5.954L-5.818,-5.954C-2.012,-5.954 0,-3.895 0,0L0,110.368ZM-32.76,-42.186C-48.342,-42.095 -58.886,-39.453 -64.096,-34.334C-69.297,-29.045 -71.938,-20.711 -71.938,-9.572L-71.938,119.941C-71.938,131.081 -69.297,139.415 -64.087,144.711C-58.886,149.825 -48.342,152.467 -32.756,152.554L3.073,152.554C18.653,152.467 29.196,149.825 34.407,144.702C39.608,139.413 42.25,131.079 42.25,119.941L42.25,-9.572C42.25,-20.709 39.608,-29.043 34.397,-34.343C29.196,-39.453 18.653,-42.095 3.068,-42.186L-32.76,-42.186Z" style="fill:white;fill-rule:nonzero;"/>
        </g>
        <g transform="matrix(1.1145,0,0,1.0962,1395.98,1413.38)">
            <path d="M0,67.57L0,98.541C0,109.682 2.641,118.016 7.851,123.312C13.051,128.425 23.596,131.067 39.181,131.155L75.01,131.155C90.589,131.067 101.133,128.425 106.344,123.302C111.544,118.015 114.185,109.681 114.185,98.541L114.185,67.36C114.185,55.314 111.544,46.52 106.334,41.222C101.038,36.018 88.998,28.54 70.559,19.003C51.51,9.152 42.249,2.065 42.249,-2.663L42.249,-21.4C42.249,-25.294 44.214,-27.353 47.929,-27.353L67.487,-27.353C71.292,-27.353 73.304,-25.294 73.304,-21.4L73.304,-0.001L112.819,-0.001L112.819,-30.972C112.819,-42.109 110.177,-50.443 104.967,-55.743C99.766,-60.853 89.221,-63.495 73.636,-63.585L40.545,-63.585C24.963,-63.495 14.418,-60.853 9.209,-55.734C4.009,-50.446 1.368,-42.112 1.368,-30.972L1.368,1.44C1.368,13.484 4.008,22.276 9.214,27.573C14.515,32.784 26.326,40.262 44.319,49.801C69.073,62.927 71.936,67.669 71.936,70.095L71.936,88.968C71.936,92.864 69.972,94.923 66.256,94.923L46.7,94.923C42.893,94.923 40.881,92.864 40.881,88.968L40.881,67.57L0,67.57Z" style="fill:white;fill-rule:nonzero;"/>
        </g>
        <g transform="matrix(1.1145,0,0,1.0962,1682.06,1343.68)">
            <path d="M0,194.74L0,0L-42.249,0L-42.249,79.186L-71.936,79.186L-71.936,0L-114.185,0L-114.185,194.74L-71.936,194.74L-71.936,115.418L-42.249,115.418L-42.249,194.74L0,194.74Z" style="fill:white;fill-rule:nonzero;"/>
        </g>
        <g transform="matrix(1.1145,0,0,1.0962,1828.23,1517.44)">
            <path d="M0,-122.276L0,-158.508L-96.681,-158.508L-96.681,-0L-96.817,-0L-96.817,36.232L0,36.232L0,-0L-54.432,-0L-54.432,-43.09L-7.658,-43.09L-7.658,-79.322L-54.432,-79.322L-54.432,-122.276L0,-122.276Z" style="fill:white;fill-rule:nonzero;"/>
        </g>
        <g transform="matrix(1.1145,0,0,1.0962,1936.46,1389.92)">
            <path d="M0,110.368C0,114.263 -2.012,116.323 -5.818,116.323L-29.686,116.323L-29.686,-5.954L-5.818,-5.954C-2.012,-5.954 0,-3.895 0,0L0,110.368ZM3.068,-42.186L-71.936,-42.186L-71.936,152.554L3.073,152.554C18.652,152.467 29.196,149.825 34.409,144.702C39.61,139.412 42.25,131.078 42.25,119.941L42.25,-9.572C42.25,-20.709 39.61,-29.043 34.399,-34.343C29.196,-39.453 18.652,-42.095 3.068,-42.186" style="fill:white;fill-rule:nonzero;"/>
        </g>
        <g transform="matrix(1.1145,0,0,1.0962,592.084,1666.55)">
            <path d="M0,-46.17C-1.655,-46.17 -2.812,-45.508 -3.476,-44.184C-4.14,-42.86 -4.472,-40.771 -4.472,-37.917L-4.472,-9.565C-4.472,-5.997 -4.188,-3.51 -3.621,-2.106C-3.055,-0.702 -1.89,0 -0.127,0C1.634,0 2.793,-0.719 3.349,-2.158C3.904,-3.597 4.181,-6.066 4.181,-9.565L4.181,-37.882C4.181,-40.76 3.898,-42.86 3.33,-44.184C2.762,-45.508 1.653,-46.17 0,-46.17" style="fill:white;fill-rule:nonzero;"/>
        </g>
        <g transform="matrix(1.1145,0,0,1.0962,774.024,1635.25)">
            <path d="M0,-17.785L-3.296,-17.785L-3.296,0L0.578,0C1.81,0 2.721,-0.264 3.313,-0.794C3.903,-1.324 4.314,-2.233 4.543,-3.523C4.773,-4.812 4.887,-6.781 4.887,-9.428L4.887,-9.808C4.887,-13.1 4.598,-15.252 4.018,-16.265C3.438,-17.278 2.1,-17.785 0,-17.785" style="fill:white;fill-rule:nonzero;"/>
        </g>
        <g transform="matrix(1.1145,0,0,1.0962,677.294,1666.55)">
            <path d="M0,-46.17C-1.655,-46.17 -2.813,-45.508 -3.476,-44.184C-4.14,-42.86 -4.472,-40.771 -4.472,-37.917L-4.472,-9.565C-4.472,-5.997 -4.188,-3.51 -3.621,-2.106C-3.055,-0.702 -1.89,0 -0.127,0C1.634,0 2.793,-0.719 3.349,-2.158C3.904,-3.597 4.181,-6.066 4.181,-9.565L4.181,-37.882C4.181,-40.76 3.898,-42.86 3.33,-44.184C2.762,-45.508 1.653,-46.17 0,-46.17" style="fill:white;fill-rule:nonzero;"/>
        </g>
        <g transform="matrix(1.1145,0,0,1.0962,495.11,1639.94)">
            <path d="M0,-22.066L-3.403,-22.066L-3.403,0L-0.072,0C1.98,0 3.314,-0.754 3.929,-2.261C4.544,-3.769 4.852,-6.641 4.852,-10.877L4.852,-12.052C4.828,-15.643 4.495,-18.209 3.856,-19.752C3.216,-21.294 1.932,-22.066 0,-22.066" style="fill:white;fill-rule:nonzero;"/>
        </g>
        <g transform="matrix(-0.141592,1.08732,1.10547,0.139267,839.833,1639.67)">
            <path d="M-14.854,-17.454L15.922,-17.454L14.864,-9.195L-14.872,-17.311L-14.854,-17.454Z" style="fill:white;fill-rule:nonzero;"/>
        </g>
        <g transform="matrix(-0.141627,1.08731,1.10546,0.139302,285.152,1639.67)">
            <path d="M-14.854,-17.455L15.922,-17.455L14.864,-9.193L-14.872,-17.311L-14.854,-17.455Z" style="fill:white;fill-rule:nonzero;"/>
        </g>
        <g transform="matrix(1.1145,0,0,1.0962,1745.1,1607.92)">
            <path d="M0,60.812L-10.247,32.426L-10.247,60.812L-20.022,60.812L-20.022,0.035L-10.319,0.035L-10.319,28.006L-0.616,0.035L9.414,0.035L-1.158,30.009L10.246,60.812L0,60.812ZM-45.721,60.812C-45.964,60.352 -46.084,53.088 -46.084,39.022C-46.084,36.328 -46.422,34.539 -47.097,33.652C-47.773,32.766 -49.137,32.3 -51.19,32.253L-54.303,32.116L-54.303,60.812L-64.006,60.812L-64.006,0.035L-47.966,0.035C-44.636,0.035 -42.149,0.674 -40.508,1.951C-38.867,3.229 -37.787,5.013 -37.267,7.304C-36.748,9.595 -36.488,12.587 -36.488,16.282C-36.488,19.977 -36.899,22.792 -37.719,24.725C-38.54,26.659 -40.061,27.96 -42.281,28.628C-40.086,28.996 -38.552,30.412 -37.683,32.875C-36.815,35.339 -36.38,40.466 -36.38,48.26C-36.38,56.052 -36.259,60.237 -36.018,60.812L-45.721,60.812ZM-87.136,60.812L-88.656,49.969L-98.941,49.969L-100.315,60.812L-109.657,60.812L-100.569,0.035L-87.751,0.035L-78.085,60.812L-87.136,60.812ZM-125.727,56.53C-127.851,59.385 -131.362,60.812 -136.263,60.812L-150.238,60.812L-150.238,0.035L-135.937,0.035C-131.254,0.035 -127.857,1.353 -125.745,3.988C-123.632,6.625 -122.576,10.51 -122.576,15.643L-122.54,43.063C-122.54,49.187 -123.603,53.676 -125.727,56.53M-186.069,60.812L-207.866,60.812L-207.866,0.035L-186.504,0.035L-186.504,8.012L-198.163,8.012L-198.163,25.692L-187.084,25.692L-187.084,33.497L-198.163,33.497L-198.163,52.835L-186.069,52.835L-186.069,60.812ZM-224.843,60.812L-234.546,60.812L-234.546,32.564L-243.236,32.564L-243.236,60.812L-252.939,60.812L-252.939,0.035L-243.236,0.035L-243.236,24.622L-234.546,24.622L-234.546,0.035L-224.843,0.035L-224.843,60.812ZM-265.714,8.046L-272.883,8.046L-272.883,60.812L-282.55,60.812L-282.55,8.046L-290.008,8.046L-290.008,0.035L-265.714,0.035L-265.714,8.046ZM-323.486,60.812L-330.366,60.812L-344.233,23.067L-343.69,39.022L-343.69,60.812L-352.633,60.812L-352.633,0.035L-345.03,0.035L-331.524,36.501L-332.212,19.925L-332.212,0.035L-323.486,0.035L-323.486,60.812ZM-369.969,60.812L-379.673,60.812L-379.673,0.035L-369.969,0.035L-369.969,60.812ZM-413.513,8.046L-420.682,8.046L-420.682,60.812L-430.349,60.812L-430.349,8.046L-437.807,8.046L-437.807,0.035L-413.513,0.035L-413.513,8.046ZM-450.943,60.812L-460.648,60.812L-460.648,0.035L-450.943,0.035L-450.943,60.812ZM-497.929,43.822C-497.929,49.762 -499.039,54.193 -501.259,57.117C-503.48,60.041 -507.035,61.503 -511.922,61.503C-516.81,61.503 -520.395,60.035 -522.676,57.099C-524.957,54.165 -526.097,49.739 -526.097,43.822L-526.097,16.023C-526.097,4.881 -521.331,-0.69 -511.796,-0.69C-506.872,-0.69 -503.33,0.725 -501.17,3.557C-499.009,6.388 -497.929,10.545 -497.929,16.023L-497.929,43.822ZM-544.629,56.53C-546.753,59.385 -550.264,60.812 -555.165,60.812L-569.14,60.812L-569.14,0.035L-554.839,0.035C-550.156,0.035 -546.759,1.353 -544.646,3.988C-542.534,6.625 -541.478,10.51 -541.478,15.643L-541.442,43.063C-541.442,49.187 -542.505,53.676 -544.629,56.53M-607.326,57.428C-609.33,60.144 -612.835,61.503 -617.844,61.503C-622.853,61.503 -626.341,59.989 -628.309,56.962C-630.275,53.934 -631.259,49.52 -631.259,43.718L-631.259,38.297L-622.062,38.297L-622.062,44.409C-622.062,47.793 -621.761,50.171 -621.157,51.54C-620.555,52.91 -619.42,53.595 -617.753,53.595C-616.088,53.595 -614.984,53.031 -614.44,51.902C-613.898,50.775 -613.626,48.933 -613.626,46.377C-613.626,43.822 -614.11,41.594 -615.075,39.695C-616.04,37.796 -617.572,35.81 -619.673,33.738L-624.38,29.111C-626.577,26.924 -628.285,24.656 -629.503,22.308C-630.722,19.959 -631.331,17.244 -631.331,14.159C-631.331,9.139 -630.318,5.41 -628.29,2.97C-626.262,0.53 -622.776,-0.69 -617.827,-0.69C-612.878,-0.69 -609.529,0.731 -607.778,3.574C-606.029,6.418 -605.153,10.567 -605.153,16.023L-605.153,19.787L-614.096,19.787L-614.096,15.436C-614.096,12.489 -614.363,10.377 -614.894,9.099C-615.424,7.821 -616.444,7.182 -617.953,7.182C-619.461,7.182 -620.548,7.666 -621.212,8.633C-621.876,9.6 -622.208,11.051 -622.208,12.984C-622.208,14.918 -621.869,16.461 -621.193,17.612C-620.519,18.763 -619.299,20.236 -617.536,22.031L-612.287,27.453C-609.655,30.17 -607.67,32.922 -606.33,35.707C-604.99,38.492 -604.321,41.531 -604.321,44.824C-604.321,50.51 -605.322,54.712 -607.326,57.428M-655.691,60.812C-655.933,60.352 -656.054,53.088 -656.054,39.022C-656.054,36.328 -656.391,34.539 -657.067,33.652C-657.743,32.766 -659.107,32.3 -661.159,32.253L-664.272,32.116L-664.272,60.812L-673.975,60.812L-673.975,0.035L-657.936,0.035C-654.606,0.035 -652.118,0.674 -650.477,1.951C-648.836,3.229 -647.756,5.013 -647.237,7.304C-646.717,9.595 -646.458,12.587 -646.458,16.282C-646.458,19.977 -646.869,22.792 -647.689,24.725C-648.51,26.659 -650.03,27.96 -652.251,28.628C-650.056,28.996 -648.522,30.412 -647.653,32.875C-646.784,35.339 -646.349,40.466 -646.349,48.26C-646.349,56.052 -646.229,60.237 -645.988,60.812L-655.691,60.812ZM-689.14,60.812L-710.936,60.812L-710.936,0.035L-689.575,0.035L-689.575,8.012L-701.233,8.012L-701.233,25.692L-690.154,25.692L-690.154,33.497L-701.233,33.497L-701.233,52.835L-689.14,52.835L-689.14,60.812ZM-727.913,60.812L-737.616,60.812L-737.616,32.564L-746.306,32.564L-746.306,60.812L-756.009,60.812L-756.009,0.035L-746.306,0.035L-746.306,24.622L-737.616,24.622L-737.616,0.035L-727.913,0.035L-727.913,60.812ZM-769.942,18.44C-769.942,24.472 -770.841,29.048 -772.639,32.167C-774.438,35.287 -777.775,36.846 -782.651,36.846L-787.901,36.846L-787.901,60.812L-797.604,60.812L-797.604,0.035L-782.976,0.035C-778.03,0.035 -774.643,1.468 -772.821,4.334C-770.998,7.2 -770.038,11.476 -769.942,17.162L-769.942,18.44ZM-820.734,60.812L-822.254,49.969L-832.539,49.969L-833.913,60.812L-843.255,60.812L-834.168,0.035L-821.35,0.035L-811.683,60.812L-820.734,60.812ZM-866.06,60.812C-866.302,60.352 -866.422,53.088 -866.422,39.022C-866.422,36.328 -866.76,34.539 -867.436,33.652C-868.112,32.766 -869.475,32.3 -871.528,32.253L-874.641,32.116L-874.641,60.812L-884.344,60.812L-884.344,0.035L-868.304,0.035C-864.974,0.035 -862.487,0.674 -860.846,1.951C-859.205,3.229 -858.125,5.013 -857.605,7.304C-857.086,9.595 -856.826,12.587 -856.826,16.282C-856.826,19.977 -857.237,22.792 -858.058,24.725C-858.878,26.659 -860.399,27.96 -862.619,28.628C-860.425,28.996 -858.89,30.412 -858.022,32.875C-857.153,35.339 -856.718,40.466 -856.718,48.26C-856.718,56.052 -856.597,60.237 -856.357,60.812L-866.06,60.812ZM-900.884,21.272L-909.935,21.272L-909.935,14.918C-909.935,12.133 -910.243,10.175 -910.859,9.048C-911.475,7.92 -912.634,7.355 -914.335,7.355C-916.036,7.355 -917.239,8.029 -917.939,9.376C-918.639,10.723 -918.988,13.111 -918.988,16.541L-918.988,42.89C-918.988,46.873 -918.675,49.647 -918.047,51.212C-917.419,52.778 -916.195,53.56 -914.371,53.56C-912.55,53.56 -911.258,52.72 -910.498,51.04C-909.737,49.359 -909.357,46.527 -909.357,42.544L-909.357,34.36L-914.244,34.36L-914.244,27.626L-900.884,27.626L-900.884,60.812L-905.229,60.812L-906.714,54.838C-907.221,56.887 -908.33,58.498 -910.045,59.673C-911.759,60.846 -913.738,61.434 -915.983,61.434C-919.989,61.434 -923.121,59.931 -925.378,56.927C-927.637,53.923 -928.763,49.29 -928.763,43.027L-928.763,16.61C-928.763,10.993 -927.612,6.711 -925.306,3.764C-923.001,0.817 -919.339,-0.656 -914.318,-0.656C-908.066,-0.656 -904.094,1.566 -902.405,6.009C-901.392,8.679 -900.884,12.328 -900.884,16.956L-900.884,21.272ZM-944.182,43.822C-944.182,49.762 -945.291,54.193 -947.512,57.117C-949.733,60.041 -953.288,61.503 -958.175,61.503C-963.063,61.503 -966.648,60.035 -968.929,57.099C-971.209,54.165 -972.35,49.739 -972.35,43.822L-972.35,16.023C-972.35,4.881 -967.584,-0.69 -958.049,-0.69C-953.125,-0.69 -949.583,0.725 -947.422,3.557C-945.262,6.388 -944.182,10.545 -944.182,16.023L-944.182,43.822ZM-984.329,8.046L-991.498,8.046L-991.498,60.812L-1001.17,60.812L-1001.17,8.046L-1008.62,8.046L-1008.62,0.035L-984.329,0.035L-984.329,8.046ZM-1020.64,43.822C-1020.64,49.762 -1021.75,54.193 -1023.97,57.117C-1026.19,60.041 -1029.74,61.503 -1034.63,61.503C-1039.52,61.503 -1043.1,60.035 -1045.38,57.099C-1047.66,54.165 -1048.81,49.739 -1048.81,43.822L-1048.81,16.023C-1048.81,4.881 -1044.04,-0.69 -1034.51,-0.69C-1029.58,-0.69 -1026.04,0.725 -1023.88,3.557C-1021.72,6.388 -1020.64,10.545 -1020.64,16.023L-1020.64,43.822ZM-1064.98,60.812L-1074.69,60.812L-1074.69,32.564L-1083.38,32.564L-1083.38,60.812L-1093.08,60.812L-1093.08,0.035L-1083.38,0.035L-1083.38,24.622L-1074.69,24.622L-1074.69,0.035L-1064.98,0.035L-1064.98,60.812ZM-1107.01,18.44C-1107.01,24.472 -1107.91,29.048 -1109.71,32.167C-1111.51,35.287 -1114.85,36.846 -1119.72,36.846L-1124.97,36.846L-1124.97,60.812L-1134.68,60.812L-1134.68,0.035L-1120.05,0.035C-1115.1,0.035 -1111.72,1.468 -1109.89,4.334C-1108.07,7.2 -1107.11,11.476 -1107.01,17.162L-1107.01,18.44ZM-1150.89,43.822C-1150.89,49.762 -1152,54.193 -1154.22,57.117C-1156.44,60.041 -1160,61.503 -1164.88,61.503C-1169.77,61.503 -1173.36,60.035 -1175.64,57.099C-1177.92,54.165 -1179.06,49.739 -1179.06,43.822L-1179.06,16.023C-1179.06,4.881 -1174.29,-0.69 -1164.76,-0.69C-1159.83,-0.69 -1156.29,0.725 -1154.13,3.557C-1151.97,6.388 -1150.89,10.545 -1150.89,16.023L-1150.89,43.822ZM-1203.96,60.812C-1204.21,60.352 -1204.33,53.088 -1204.33,39.022C-1204.33,36.328 -1204.66,34.539 -1205.34,33.652C-1206.02,32.766 -1207.38,32.3 -1209.43,32.253L-1212.55,32.116L-1212.55,60.812L-1222.25,60.812L-1222.25,0.035L-1206.21,0.035C-1202.88,0.035 -1200.39,0.674 -1198.75,1.951C-1197.11,3.229 -1196.03,5.013 -1195.51,7.304C-1194.99,9.595 -1194.73,12.587 -1194.73,16.282C-1194.73,19.977 -1195.14,22.792 -1195.96,24.725C-1196.78,26.659 -1198.3,27.96 -1200.53,28.628C-1198.33,28.996 -1196.8,30.412 -1195.93,32.875C-1195.06,35.339 -1194.62,40.466 -1194.62,48.26C-1194.62,56.052 -1194.5,60.237 -1194.26,60.812L-1203.96,60.812ZM-1235.02,8.046L-1242.19,8.046L-1242.19,60.812L-1251.86,60.812L-1251.86,8.046L-1259.32,8.046L-1259.32,0.035L-1235.02,0.035L-1235.02,8.046ZM-1272.63,57.428C-1274.64,60.144 -1278.15,61.503 -1283.15,61.503C-1288.16,61.503 -1291.65,59.989 -1293.62,56.962C-1295.59,53.934 -1296.57,49.52 -1296.57,43.718L-1296.57,38.297L-1287.37,38.297L-1287.37,44.409C-1287.37,47.793 -1287.07,50.171 -1286.47,51.54C-1285.86,52.91 -1284.73,53.595 -1283.06,53.595C-1281.4,53.595 -1280.29,53.031 -1279.75,51.902C-1279.21,50.775 -1278.93,48.933 -1278.93,46.377C-1278.93,43.822 -1279.42,41.594 -1280.38,39.695C-1281.35,37.796 -1282.88,35.81 -1284.98,33.738L-1289.69,29.111C-1291.89,26.924 -1293.59,24.656 -1294.81,22.308C-1296.03,19.959 -1296.64,17.244 -1296.64,14.159C-1296.64,9.139 -1295.63,5.41 -1293.6,2.97C-1291.57,0.53 -1288.08,-0.69 -1283.13,-0.69C-1278.19,-0.69 -1274.84,0.731 -1273.09,3.574C-1271.34,6.418 -1270.46,10.567 -1270.46,16.023L-1270.46,19.787L-1279.41,19.787L-1279.41,15.436C-1279.41,12.489 -1279.67,10.377 -1280.2,9.099C-1280.73,7.821 -1281.75,7.182 -1283.26,7.182C-1284.77,7.182 -1285.86,7.666 -1286.52,8.633C-1287.18,9.6 -1287.52,11.051 -1287.52,12.984C-1287.52,14.918 -1287.18,16.461 -1286.5,17.612C-1285.83,18.763 -1284.61,20.236 -1282.85,22.031L-1277.6,27.453C-1274.96,30.17 -1272.98,32.922 -1271.64,35.707C-1270.3,38.492 -1269.63,41.531 -1269.63,44.824C-1269.63,50.51 -1270.63,54.712 -1272.63,57.428M-1318.43,60.812L-1319.95,49.969L-1330.24,49.969L-1331.61,60.812L-1340.95,60.812L-1331.86,0.035L-1319.05,0.035L-1309.38,60.812L-1318.43,60.812ZM-1416.26,-15.166L-1372.54,30.406L-1372.67,30.544L-1416.26,75.978L85.555,75.978L41.832,30.406L85.555,-15.166L-1416.26,-15.166Z" style="fill:white;fill-rule:nonzero;"/>
        </g>
        <g transform="matrix(1.1145,0,0,1.0962,397.43,1635.25)">
            <path d="M0,-17.785L-3.295,-17.785L-3.295,0L0.58,0C1.81,0 2.721,-0.264 3.313,-0.794C3.905,-1.324 4.315,-2.233 4.544,-3.523C4.773,-4.812 4.888,-6.781 4.888,-9.428L4.888,-9.808C4.888,-13.1 4.599,-15.252 4.019,-16.265C3.44,-17.278 2.1,-17.785 0,-17.785" style="fill:white;fill-rule:nonzero;"/>
        </g>
        <g transform="matrix(-0.141592,1.08732,1.10547,0.139267,1657.43,1639.67)">
            <path d="M-14.854,-17.454L15.922,-17.454L14.864,-9.195L-14.873,-17.31L-14.854,-17.454Z" style="fill:white;fill-rule:nonzero;"/>
        </g>
        <g transform="matrix(1.1145,0,0,1.0962,446.916,1666.55)">
            <path d="M0,-46.17C-1.653,-46.17 -2.812,-45.508 -3.475,-44.184C-4.139,-42.86 -4.471,-40.771 -4.471,-37.917L-4.471,-9.565C-4.471,-5.997 -4.188,-3.51 -3.621,-2.106C-3.053,-0.702 -1.889,0 -0.126,0C1.636,0 2.794,-0.719 3.35,-2.158C3.905,-3.597 4.182,-6.066 4.182,-9.565L4.182,-37.882C4.182,-40.76 3.898,-42.86 3.332,-44.184C2.764,-45.508 1.654,-46.17 0,-46.17" style="fill:white;fill-rule:nonzero;"/>
        </g>
        <g transform="matrix(1.1145,0,0,1.0962,870.776,1639.94)">
            <path d="M0,-22.066L-3.404,-22.066L-3.404,0L-0.072,0C1.978,0 3.313,-0.754 3.929,-2.261C4.545,-3.769 4.851,-6.641 4.851,-10.877L4.851,-12.052C4.826,-15.643 4.495,-18.209 3.856,-19.752C3.217,-21.294 1.93,-22.066 0,-22.066" style="fill:white;fill-rule:nonzero;"/>
        </g>
        <g transform="matrix(1.1145,0,0,1.0962,1174.64,1666.55)">
            <path d="M0,-46.17C-1.655,-46.17 -2.813,-45.508 -3.476,-44.184C-4.14,-42.86 -4.472,-40.771 -4.472,-37.917L-4.472,-9.565C-4.472,-5.997 -4.188,-3.51 -3.621,-2.106C-3.055,-0.702 -1.89,0 -0.127,0C1.634,0 2.793,-0.719 3.349,-2.158C3.905,-3.597 4.181,-6.066 4.181,-9.565L4.181,-37.882C4.181,-40.76 3.898,-42.86 3.33,-44.184C2.762,-45.508 1.653,-46.17 0,-46.17" style="fill:white;fill-rule:nonzero;"/>
        </g>
        <g transform="matrix(1.1145,0,0,1.0962,1688.29,1635.25)">
            <path d="M0,-17.785L-3.296,-17.785L-3.296,0L0.578,0C1.809,0 2.721,-0.264 3.313,-0.794C3.903,-1.324 4.314,-2.233 4.543,-3.523C4.773,-4.812 4.887,-6.781 4.887,-9.428L4.887,-9.808C4.887,-13.1 4.598,-15.252 4.018,-16.265C3.438,-17.278 2.1,-17.785 0,-17.785" style="fill:white;fill-rule:nonzero;"/>
        </g>
        <g transform="matrix(1.1145,0,0,1.0962,1596.32,1664.51)">
            <path d="M0,-42.475C-0.809,-43.81 -2.204,-44.478 -4.182,-44.478L-7.042,-44.478L-7.042,2.003L-3.856,2.003C-2.069,2.003 -0.772,1.451 0.036,0.345C0.844,-0.76 1.249,-2.785 1.249,-5.732L1.213,-35.741C1.213,-38.895 0.808,-41.14 0,-42.475" style="fill:white;fill-rule:nonzero;"/>
        </g>
        <g transform="matrix(1.1145,0,0,1.0962,1008.48,1635.25)">
            <path d="M0,-17.785L-3.296,-17.785L-3.296,0L0.578,0C1.809,0 2.721,-0.264 3.313,-0.794C3.903,-1.324 4.314,-2.233 4.543,-3.523C4.773,-4.812 4.887,-6.781 4.887,-9.428L4.887,-9.808C4.887,-13.1 4.598,-15.252 4.018,-16.265C3.438,-17.278 2.1,-17.785 0,-17.785" style="fill:white;fill-rule:nonzero;"/>
        </g>
        <g transform="matrix(1.1145,0,0,1.0962,1129.45,1664.51)">
            <path d="M0,-42.475C-0.808,-43.81 -2.203,-44.478 -4.181,-44.478L-7.042,-44.478L-7.042,2.003L-3.856,2.003C-2.069,2.003 -0.772,1.451 0.036,0.345C0.845,-0.76 1.249,-2.785 1.249,-5.732L1.213,-35.741C1.213,-38.895 0.809,-41.14 0,-42.475" style="fill:white;fill-rule:nonzero;"/>
        </g>
    </g>
</svg>
